<?xml version="1.0" encoding="utf-8"?>
<!-- Uploaded to: SVG Repo, www.svgrepo.com, Generator: SVG Repo Mixer Tools -->
<svg fill="#000000" version="1.1" id="Layer_1" xmlns="http://www.w3.org/2000/svg" xmlns:xlink="http://www.w3.org/1999/xlink" 
	 width="800px" height="800px" viewBox="0 0 256 253" enable-background="new 0 0 256 253" xml:space="preserve">
<path d="M58.403,201.981l32.24-0.141l-0.282-14.783l36.464,14.923h69.971c0,0,5.631-11.545-8.166-20.414
	c-6.617-4.364-19.569-7.743-31.395-14.36c-10.277-5.772-23.089-19.992-29.002-26.89c-0.282-0.422-0.704-0.704-0.986-1.126
	c-0.845-0.704-1.83-1.126-3.097-1.126c-0.845,0-1.549,0.282-2.253,0.563c-0.141,0.141-0.422,0.282-0.704,0.422
	c-5.35,3.238-15.487,8.306-26.186,7.462c-13.093-0.986-27.313-12.53-27.313-12.53s-8.588,11.685-9.433,27.453
	C57.981,168.755,57.981,195.505,58.403,201.981z M136.962,167.488c1.689-1.549,4.224-1.549,5.772,0.141s1.549,4.224-0.141,5.772
	c-1.689,1.549-4.224,1.549-5.772-0.141C135.413,171.712,135.273,169.037,136.962,167.488z M127.952,157.774
	c1.689-1.549,4.224-1.549,5.772,0.141c1.549,1.689,1.549,4.224-0.141,5.772c-1.689,1.549-4.224,1.549-5.772-0.141
	C126.262,161.997,126.262,159.322,127.952,157.774z M118.941,148.06c0.845-0.845,1.83-1.126,2.816-1.126
	c0.704,0,1.408,0.141,2.112,0.563c0.282,0.282,0.563,0.422,0.845,0.704c1.549,1.689,1.549,4.224-0.141,5.772
	c-1.689,1.549-4.224,1.549-5.772-0.141C117.252,152.283,117.393,149.749,118.941,148.06z M2,69c0,13.678,9.625,25.302,22,29.576V233
	H2v18h252v-18h-22V98.554c12.89-3.945,21.699-15.396,22-29.554v-8H2V69z M65.29,68.346c0,6.477,6.755,31.47,31.727,31.47
	c21.689,0,31.202-19.615,31.202-31.47c0,11.052,7.41,31.447,31.464,31.447c21.733,0,31.363-20.999,31.363-31.447
	c0,14.425,9.726,26.416,22.954,30.154V233H42V98.594C55.402,94.966,65.29,82.895,65.29,68.346z M254,54H2l32-32V2h189v20h-0.168
	L254,54z"/>
</svg>